<svg id="svg" version="1.1" width="400" height="100" xmlns="http://www.w3.org/2000/svg" xmlns:xlink="http://www.w3.org/1999/xlink" style="display: block;"><g id="svgg"><path id="path0" d="M359.790 44.400 C 359.790 60.790,359.839 67.495,359.900 59.300 C 359.960 51.105,359.960 37.695,359.900 29.500 C 359.839 21.305,359.790 28.010,359.790 44.400 " stroke="none" fill="#aa0000" fill-rule="evenodd"></path><path id="path1" d="M176.540 93.200 C 176.540 95.070,176.609 95.835,176.693 94.900 C 176.777 93.965,176.777 92.435,176.693 91.500 C 176.609 90.565,176.540 91.330,176.540 93.200 " stroke="none" fill="#d50015" fill-rule="evenodd"></path><path id="path2" d="M318.175 20.400 C 318.175 26.230,318.231 28.615,318.299 25.700 C 318.367 22.785,318.367 18.015,318.299 15.100 C 318.231 12.185,318.175 14.570,318.175 20.400 M317.997 38.318 L 318.193 41.800 318.315 38.638 C 318.381 36.899,318.293 35.332,318.118 35.156 C 317.943 34.980,317.888 36.403,317.997 38.318 M318.175 56.800 C 318.175 62.630,318.231 65.015,318.299 62.100 C 318.367 59.185,318.367 54.415,318.299 51.500 C 318.231 48.585,318.175 50.970,318.175 56.800 M34.711 92.693 C 35.651 92.778,37.091 92.777,37.911 92.691 C 38.730 92.605,37.960 92.536,36.200 92.537 C 34.440 92.539,33.770 92.609,34.711 92.693 M192.311 92.693 C 193.251 92.778,194.691 92.777,195.511 92.691 C 196.330 92.605,195.560 92.536,193.800 92.537 C 192.040 92.539,191.370 92.609,192.311 92.693 M272.711 92.693 C 273.651 92.778,275.091 92.777,275.911 92.691 C 276.730 92.605,275.960 92.536,274.200 92.537 C 272.440 92.539,271.770 92.609,272.711 92.693 M338.311 92.693 C 339.251 92.778,340.691 92.777,341.511 92.691 C 342.330 92.605,341.560 92.536,339.800 92.537 C 338.040 92.539,337.370 92.609,338.311 92.693 " stroke="none" fill="#e40d0d" fill-rule="evenodd"></path><path id="path3" d="M53.746 90.600 C 53.747 92.800,53.814 93.649,53.895 92.487 C 53.976 91.324,53.976 89.524,53.893 88.487 C 53.811 87.449,53.745 88.400,53.746 90.600 M370.914 89.400 C 370.917 90.500,370.995 90.903,371.087 90.295 C 371.179 89.686,371.177 88.786,371.082 88.295 C 370.987 87.803,370.911 88.300,370.914 89.400 " stroke="none" fill="#ee0011" fill-rule="evenodd"></path><path id="path4" d="M5.474 3.207 C 3.913 3.675,1.680 5.449,0.767 6.946 C 0.047 8.128,0.003 9.167,0.001 25.100 L 0.000 42.000 20.400 42.000 L 40.800 42.000 40.800 52.420 C 40.800 64.020,40.691 64.591,38.257 65.746 C 36.384 66.635,35.168 66.568,33.565 65.488 C 31.329 63.981,31.212 63.429,31.206 54.300 L 31.200 46.000 15.600 46.000 L 0.000 46.000 0.000 57.306 C 0.000 70.264,0.036 70.426,3.379 72.700 L 5.290 74.000 35.858 74.000 C 69.522 74.000,67.963 74.115,70.288 71.466 C 72.380 69.083,72.447 68.408,72.318 51.000 L 72.200 35.000 51.700 34.896 L 31.200 34.793 31.200 24.577 C 31.200 12.172,31.678 10.800,36.000 10.800 C 40.247 10.800,40.800 12.147,40.800 22.489 L 40.800 31.200 56.623 31.200 L 72.445 31.200 72.323 19.665 L 72.200 8.130 71.055 6.478 C 70.340 5.447,69.146 4.446,67.876 3.813 L 65.843 2.800 36.221 2.834 C 19.930 2.853,6.093 3.021,5.474 3.207 M87.050 3.388 C 81.530 5.355,81.599 4.907,81.604 38.771 L 81.608 67.400 82.584 69.496 C 83.312 71.060,84.041 71.897,85.458 72.796 L 87.357 74.000 100.278 74.000 L 113.200 74.000 113.200 58.200 L 113.200 42.400 118.000 42.400 L 122.800 42.400 122.800 58.215 L 122.800 74.031 136.163 73.915 L 149.527 73.800 151.063 72.574 C 154.242 70.039,154.200 70.319,154.200 51.600 L 154.200 35.000 133.700 34.896 L 113.200 34.793 113.200 24.784 C 113.200 12.309,113.718 10.800,118.000 10.800 C 122.170 10.800,122.800 12.374,122.800 22.785 L 122.800 31.209 138.500 31.105 L 154.200 31.000 154.282 20.111 L 154.364 9.223 153.268 7.125 C 152.386 5.436,151.757 4.811,150.041 3.914 L 147.909 2.800 118.254 2.818 C 94.076 2.832,88.314 2.937,87.050 3.388 M168.597 3.546 C 163.472 5.874,163.555 5.265,163.688 39.489 C 163.810 71.228,163.698 69.703,166.062 71.853 C 168.530 74.098,166.974 74.000,199.996 74.000 C 239.650 74.000,236.394 75.566,236.398 56.500 L 236.400 46.000 220.600 46.000 L 204.800 46.000 204.800 54.586 L 204.800 63.172 203.569 64.574 C 201.448 66.990,198.350 66.882,196.192 64.317 L 195.200 63.139 195.200 52.569 L 195.200 42.000 215.816 42.000 L 236.431 42.000 236.316 38.500 L 236.200 35.000 215.700 34.896 L 195.200 34.793 195.200 24.622 C 195.200 12.212,195.689 10.803,200.000 10.803 C 204.170 10.803,204.800 12.380,204.800 22.826 L 204.800 31.200 220.600 31.200 L 236.400 31.200 236.398 20.700 C 236.395 7.433,235.852 5.567,231.403 3.546 C 228.925 2.420,171.075 2.420,168.597 3.546 M250.073 3.839 C 248.525 4.610,247.707 5.357,246.894 6.739 L 245.800 8.600 245.800 38.400 C 245.800 72.019,245.607 69.919,248.937 72.574 L 250.474 73.800 281.439 73.907 C 321.647 74.046,318.000 75.711,318.000 57.220 L 318.000 46.000 302.400 46.000 L 286.800 46.000 286.794 54.300 C 286.787 64.282,285.931 66.400,281.903 66.400 C 277.766 66.400,277.200 64.697,277.200 52.240 L 277.200 42.000 297.616 42.000 L 318.031 42.000 317.916 38.500 L 317.800 35.000 297.500 34.896 L 277.200 34.793 277.200 24.576 C 277.200 12.172,277.678 10.800,282.000 10.800 C 286.128 10.800,286.800 12.505,286.800 22.987 L 286.800 31.200 302.400 31.200 L 318.000 31.200 318.000 20.026 C 318.000 8.193,317.895 7.399,316.075 5.450 C 313.505 2.698,315.058 2.819,281.979 2.809 L 252.157 2.800 250.073 3.839 M332.138 3.806 C 330.854 4.446,329.663 5.443,328.945 6.479 L 327.800 8.131 327.691 37.966 L 327.583 67.800 328.491 69.577 C 328.991 70.554,330.091 71.904,330.937 72.577 L 332.473 73.800 346.037 73.915 L 359.600 74.030 359.600 44.195 C 359.600 11.454,359.510 12.688,361.987 11.407 C 364.419 10.149,367.963 11.198,368.810 13.426 C 369.051 14.059,369.200 25.852,369.200 44.226 L 369.200 74.000 381.955 74.000 L 394.710 74.000 396.621 72.700 C 400.242 70.238,400.000 72.694,400.000 38.365 L 400.000 8.118 399.094 6.774 C 398.596 6.035,397.410 4.883,396.460 4.215 L 394.731 3.000 364.459 2.893 L 334.186 2.785 332.138 3.806 M286.667 82.667 C 286.520 82.813,286.400 83.900,286.400 85.081 C 286.400 87.080,286.347 87.200,285.626 86.814 C 281.847 84.791,278.222 89.927,280.158 94.561 C 281.131 96.891,283.881 97.934,286.026 96.786 C 286.574 96.493,286.800 96.501,286.800 96.814 C 286.800 97.057,287.205 97.198,287.700 97.128 C 288.591 97.001,288.601 96.928,288.709 89.700 L 288.818 82.400 287.876 82.400 C 287.357 82.400,286.813 82.520,286.667 82.667 M5.322 83.900 C 5.183 84.285,4.021 87.276,2.739 90.546 C 0.354 96.633,0.261 97.200,1.646 97.200 C 2.227 97.200,2.671 96.655,3.275 95.200 L 4.107 93.200 6.404 93.200 L 8.701 93.200 9.562 95.200 C 10.409 97.169,12.400 98.192,12.400 96.658 C 12.400 96.088,8.013 84.557,7.470 83.700 C 7.003 82.963,5.614 83.092,5.322 83.900 M18.400 83.963 C 18.400 84.574,21.333 93.313,22.614 96.522 C 23.204 97.999,24.811 97.194,25.653 95.000 C 27.888 89.179,29.607 83.934,29.394 83.590 C 28.699 82.466,27.343 83.228,26.705 85.100 C 26.349 86.145,25.564 88.429,24.959 90.176 L 23.860 93.352 23.134 91.176 C 20.752 84.040,20.354 83.200,19.359 83.200 C 18.682 83.200,18.400 83.424,18.400 83.963 M83.838 84.107 C 81.204 85.613,80.600 86.786,80.600 90.400 C 80.600 95.566,82.653 97.398,88.074 97.067 C 92.094 96.821,92.000 96.920,92.000 92.958 L 92.000 89.563 89.300 89.682 C 86.067 89.823,85.120 91.277,88.100 91.524 C 90.053 91.686,90.461 94.569,88.597 95.036 C 85.644 95.778,83.197 93.992,82.898 90.879 C 82.521 86.955,84.225 85.369,88.438 85.722 C 91.115 85.946,91.600 85.745,91.600 84.406 C 91.600 83.069,86.029 82.853,83.838 84.107 M146.622 84.084 C 139.473 88.236,144.268 99.100,152.300 96.948 C 154.372 96.393,153.449 94.691,151.242 94.994 C 146.802 95.605,144.114 91.456,146.452 87.600 C 147.629 85.659,147.860 85.557,150.792 85.686 C 153.050 85.785,153.404 85.704,153.530 85.058 C 153.893 83.201,149.266 82.549,146.622 84.084 M229.878 83.455 C 228.793 84.541,229.637 85.600,231.589 85.600 L 233.578 85.600 233.689 91.300 L 233.800 97.000 234.800 97.000 L 235.800 97.000 235.911 91.300 L 236.022 85.600 238.038 85.600 C 240.000 85.600,240.050 85.571,239.927 84.500 L 239.800 83.400 234.978 83.288 C 232.326 83.227,230.031 83.302,229.878 83.455 M298.789 83.877 C 295.773 85.941,296.527 89.109,300.485 90.999 C 304.352 92.846,304.041 95.703,300.042 95.057 C 296.996 94.565,297.006 94.564,296.872 95.499 C 296.592 97.469,302.616 97.864,304.595 96.005 C 306.916 93.825,305.882 91.033,302.074 89.198 C 298.271 87.365,298.474 85.770,302.500 85.862 C 303.985 85.896,305.200 85.775,305.200 85.594 C 305.200 85.413,305.301 85.002,305.425 84.680 C 305.946 83.320,300.556 82.667,298.789 83.877 M308.267 83.467 C 307.735 83.998,308.018 85.181,308.772 85.585 C 309.518 85.984,310.800 85.268,310.800 84.451 C 310.800 83.543,308.921 82.813,308.267 83.467 M353.294 84.703 C 351.506 86.272,351.300 86.740,352.063 87.503 C 352.413 87.853,352.777 87.786,353.563 87.226 L 354.600 86.486 354.600 91.743 L 354.600 97.000 355.600 97.000 L 356.600 97.000 356.600 90.200 C 356.600 82.309,356.400 81.977,353.294 84.703 M363.722 83.982 C 359.396 86.620,362.387 93.295,367.300 91.967 C 368.511 91.639,368.662 91.961,367.935 93.326 C 367.202 94.702,366.332 95.174,364.500 95.187 C 362.957 95.199,362.800 95.292,362.800 96.200 C 362.800 98.384,368.158 97.163,369.840 94.595 C 373.449 89.088,368.741 80.922,363.722 83.982 M373.797 85.687 C 373.302 90.309,373.435 90.600,376.041 90.602 C 378.639 90.605,379.600 91.209,379.600 92.840 C 379.600 94.933,376.842 95.783,373.900 94.597 C 373.339 94.371,373.200 94.524,373.200 95.367 C 373.200 98.287,380.459 97.602,381.610 94.574 C 382.887 91.215,380.873 88.400,377.192 88.400 C 375.639 88.400,375.526 88.329,375.748 87.500 C 375.881 87.005,375.992 86.375,375.995 86.100 C 375.998 85.751,376.795 85.600,378.627 85.600 L 381.253 85.600 381.127 84.500 C 381.001 83.405,380.985 83.400,377.533 83.285 L 374.067 83.170 373.797 85.687 M385.500 84.027 C 383.858 84.894,383.695 85.249,384.597 85.998 C 385.078 86.396,385.467 86.364,386.582 85.835 C 391.534 83.485,391.586 87.293,386.670 92.359 C 382.640 96.512,382.843 97.000,388.600 97.000 L 393.000 97.000 393.000 96.000 C 393.000 95.039,392.890 94.995,390.190 94.884 L 387.381 94.769 389.674 92.389 C 395.029 86.830,391.934 80.630,385.500 84.027 M262.562 85.411 C 262.422 85.966,261.969 86.603,261.554 86.825 C 260.676 87.294,260.540 88.400,261.360 88.400 C 261.789 88.400,261.953 89.252,262.060 92.036 C 262.224 96.292,262.947 97.340,265.569 97.120 C 267.617 96.948,267.908 95.318,265.924 95.127 L 264.600 95.000 264.484 91.700 L 264.368 88.400 265.784 88.400 C 266.933 88.400,267.200 88.249,267.200 87.600 C 267.200 86.952,266.933 86.800,265.800 86.800 C 264.511 86.800,264.400 86.705,264.400 85.600 C 264.400 84.026,262.947 83.876,262.562 85.411 M367.245 85.624 C 369.040 86.585,369.116 89.145,367.373 89.939 C 366.003 90.564,365.728 90.528,364.800 89.600 C 362.849 87.649,364.875 84.356,367.245 85.624 M33.604 86.739 C 30.784 87.575,29.725 93.185,31.924 95.645 C 33.846 97.797,39.451 97.683,39.118 95.499 C 39.034 94.947,38.753 94.655,38.391 94.743 C 35.131 95.531,33.200 94.934,33.200 93.138 C 33.200 92.481,33.558 92.400,36.452 92.400 L 39.704 92.400 39.496 90.553 C 39.153 87.510,36.594 85.854,33.604 86.739 M45.400 86.758 C 44.960 86.946,44.009 87.008,43.288 86.896 L 41.975 86.691 42.088 91.846 L 42.200 97.000 43.200 97.000 C 44.181 97.000,44.204 96.929,44.400 93.266 C 44.609 89.361,45.093 88.400,46.848 88.400 C 48.383 88.400,48.800 89.474,48.800 93.429 C 48.800 97.185,48.804 97.200,49.800 97.200 L 50.800 97.200 50.800 92.844 C 50.800 87.204,49.028 85.206,45.400 86.758 M66.914 86.969 C 64.177 88.205,64.771 90.924,68.124 92.512 C 72.238 94.460,70.858 95.915,66.009 94.743 C 65.647 94.655,65.366 94.947,65.282 95.499 C 65.101 96.685,66.734 97.332,69.304 97.093 C 74.102 96.648,74.145 92.433,69.371 90.610 C 66.434 89.489,67.314 87.925,70.435 88.718 C 71.916 89.094,72.080 89.056,72.377 88.264 C 72.947 86.751,69.307 85.888,66.914 86.969 M97.900 86.979 C 97.295 87.294,96.800 87.383,96.800 87.176 C 96.800 86.969,96.345 86.800,95.788 86.800 L 94.776 86.800 94.888 91.900 L 95.000 97.000 96.000 97.000 C 96.980 97.000,97.004 96.925,97.200 93.318 C 97.418 89.304,97.745 88.660,99.540 88.711 C 100.479 88.737,100.755 88.549,100.901 87.781 C 101.198 86.231,99.966 85.901,97.900 86.979 M104.926 86.985 C 101.507 88.472,101.579 95.499,105.026 96.810 C 107.625 97.798,110.508 96.797,111.432 94.586 C 113.551 89.514,109.634 84.938,104.926 86.985 M129.800 86.760 C 129.360 86.947,128.415 87.009,127.700 86.898 L 126.400 86.695 126.400 93.948 L 126.400 101.200 127.600 101.200 C 128.785 101.200,128.800 101.174,128.800 99.038 L 128.800 96.876 130.392 97.090 C 133.810 97.548,135.600 95.677,135.600 91.645 C 135.600 87.890,132.762 85.500,129.800 86.760 M158.130 86.963 C 153.531 89.039,155.043 97.200,160.026 97.200 C 162.118 97.200,163.775 96.322,164.330 94.919 C 166.487 89.467,162.869 84.824,158.130 86.963 M171.000 86.760 C 170.560 86.947,169.609 87.008,168.888 86.896 L 167.575 86.691 167.688 91.846 L 167.800 97.000 168.800 97.000 C 169.786 97.000,169.802 96.949,169.915 93.299 C 170.042 89.203,170.803 88.013,172.949 88.552 C 174.146 88.852,174.388 89.747,174.395 93.900 C 174.400 97.152,174.415 97.200,175.400 97.200 L 176.400 97.200 176.400 92.844 C 176.400 87.277,174.589 85.236,171.000 86.760 M181.600 87.079 C 175.745 90.094,179.480 98.668,185.900 96.948 C 187.721 96.460,187.097 94.680,185.217 94.997 C 182.298 95.490,180.816 93.971,181.365 91.047 C 181.708 89.219,182.544 88.615,184.605 88.705 C 185.876 88.760,186.388 88.609,186.574 88.123 C 187.159 86.598,183.873 85.909,181.600 87.079 M190.885 87.003 C 187.606 88.427,187.540 94.914,190.787 96.593 C 193.254 97.869,196.800 97.262,196.800 95.563 C 196.800 94.501,196.727 94.448,195.774 94.810 C 194.142 95.430,192.466 95.266,191.600 94.400 C 190.014 92.814,190.510 92.400,194.000 92.400 L 197.200 92.400 197.200 91.019 C 197.200 87.411,194.256 85.538,190.885 87.003 M203.100 86.979 C 202.495 87.294,202.000 87.383,202.000 87.176 C 202.000 86.969,201.455 86.800,200.788 86.800 L 199.576 86.800 199.688 91.900 L 199.800 97.000 200.800 97.000 C 201.767 97.000,201.807 96.893,202.002 93.800 C 202.279 89.399,202.850 88.530,205.300 88.779 C 205.830 88.833,206.000 88.552,206.000 87.625 C 206.000 86.209,205.001 85.987,203.100 86.979 M211.400 86.778 C 210.960 86.955,210.009 87.008,209.288 86.896 L 207.975 86.691 208.088 91.846 L 208.200 97.000 209.200 97.000 C 210.181 97.000,210.204 96.929,210.400 93.266 C 210.609 89.373,211.094 88.400,212.827 88.400 C 214.031 88.400,214.366 89.376,214.484 93.222 L 214.600 97.000 215.700 97.127 L 216.800 97.253 216.800 93.000 C 216.800 87.167,215.152 85.269,211.400 86.778 M243.720 86.842 C 242.146 87.297,241.879 87.682,242.525 88.565 C 242.942 89.135,243.216 89.174,244.196 88.801 C 245.716 88.224,247.200 88.597,247.200 89.556 C 247.200 90.141,246.788 90.352,245.244 90.556 C 242.512 90.919,241.200 92.036,241.200 94.000 C 241.200 96.527,243.148 97.699,246.057 96.923 C 247.040 96.661,247.697 96.657,247.954 96.914 C 249.389 98.349,250.504 90.437,249.208 88.016 C 248.484 86.663,246.102 86.153,243.720 86.842 M253.714 86.969 C 250.977 88.205,251.559 90.862,254.928 92.512 C 259.014 94.513,257.685 95.905,252.800 94.743 C 252.400 94.648,252.159 94.958,252.076 95.677 C 251.965 96.632,252.116 96.786,253.401 97.027 C 260.135 98.290,262.032 93.135,255.825 90.437 C 253.151 89.275,253.979 87.909,256.887 88.685 C 258.798 89.195,259.200 89.076,259.200 88.000 C 259.200 86.615,255.880 85.991,253.714 86.969 M271.105 87.004 C 265.405 90.210,270.602 99.903,276.367 96.818 C 277.373 96.279,277.393 94.504,276.391 94.738 C 273.256 95.468,271.200 94.855,271.200 93.191 C 271.200 92.469,271.479 92.400,274.400 92.400 L 277.600 92.400 277.600 90.806 C 277.600 87.583,273.913 85.425,271.105 87.004 M317.000 86.778 C 316.560 86.955,315.615 87.009,314.900 86.898 L 313.600 86.695 313.600 91.974 L 313.600 97.253 314.700 97.127 C 315.797 97.000,315.800 96.991,316.000 93.214 C 316.191 89.593,316.248 89.400,317.297 88.814 C 319.273 87.707,319.770 88.484,320.000 93.042 C 320.197 96.944,320.214 97.000,321.200 97.000 C 322.230 97.000,322.903 91.275,322.203 88.474 C 321.825 86.963,318.906 86.011,317.000 86.778 M328.200 86.668 C 324.488 87.663,323.607 94.397,326.925 96.419 C 329.195 97.804,332.400 97.390,332.400 95.713 C 332.400 94.782,332.299 94.730,330.983 94.977 C 328.272 95.485,326.829 93.903,327.370 91.018 C 327.712 89.197,328.834 88.427,330.769 88.687 C 332.324 88.895,333.321 87.961,332.462 87.102 C 332.013 86.653,329.290 86.376,328.200 86.668 M336.926 86.966 C 333.046 88.712,333.709 96.259,337.810 97.028 C 340.545 97.541,342.866 96.900,342.724 95.672 C 342.642 94.961,342.398 94.646,342.000 94.738 C 338.835 95.463,336.800 94.857,336.800 93.191 C 336.800 92.468,337.079 92.400,340.052 92.400 L 343.304 92.400 343.096 90.553 C 342.731 87.317,339.858 85.647,336.926 86.966 M54.000 91.018 C 54.000 96.715,55.656 98.376,59.774 96.810 C 60.470 96.545,60.800 96.554,60.800 96.838 C 60.800 97.068,61.205 97.198,61.700 97.128 C 62.573 97.004,62.603 96.845,62.712 91.900 L 62.824 86.800 61.612 86.800 L 60.400 86.800 60.400 90.338 C 60.400 94.265,59.911 95.200,57.859 95.200 C 56.422 95.200,56.000 94.012,56.000 89.974 C 56.000 86.855,55.983 86.800,55.000 86.800 L 54.000 86.800 54.000 91.018 M114.400 90.620 C 114.400 94.588,114.938 96.460,116.218 96.952 C 117.223 97.337,119.569 97.245,120.426 96.786 C 120.960 96.500,121.200 96.500,121.200 96.786 C 121.200 97.014,121.650 97.200,122.200 97.200 L 123.200 97.200 123.200 92.000 L 123.200 86.800 122.200 86.800 C 121.223 86.800,121.200 86.868,121.200 89.781 C 121.200 93.242,120.661 94.719,119.270 95.068 C 117.376 95.544,117.010 94.866,116.886 90.658 L 116.771 86.800 115.586 86.800 L 114.400 86.800 114.400 90.620 M308.174 87.324 C 308.063 87.613,308.024 89.908,308.086 92.424 L 308.200 97.000 309.200 97.000 L 310.200 97.000 310.312 91.900 L 310.424 86.800 309.399 86.800 C 308.836 86.800,308.284 87.036,308.174 87.324 M7.338 89.000 L 7.951 90.800 6.549 90.800 C 5.043 90.800,5.040 90.782,6.044 88.100 C 6.509 86.855,6.638 86.945,7.338 89.000 M36.469 89.062 C 37.624 90.107,37.346 90.400,35.200 90.400 C 33.027 90.400,32.859 90.240,33.862 89.131 C 34.683 88.224,35.518 88.202,36.469 89.062 M108.784 89.275 C 110.552 91.172,109.475 95.200,107.200 95.200 C 105.687 95.200,104.800 93.911,104.800 91.711 C 104.800 88.800,107.057 87.421,108.784 89.275 M132.400 89.200 C 134.095 90.895,133.141 95.200,131.070 95.200 C 129.559 95.200,128.800 94.050,128.800 91.761 C 128.800 88.755,130.644 87.444,132.400 89.200 M161.971 89.454 C 164.320 92.440,161.099 97.162,158.599 94.399 C 157.522 93.209,157.648 90.052,158.810 89.112 C 160.036 88.119,161.003 88.223,161.971 89.454 M194.171 89.029 C 195.220 90.077,194.894 90.400,192.786 90.400 C 190.926 90.400,190.803 90.341,191.181 89.635 C 191.877 88.335,193.208 88.065,194.171 89.029 M274.571 89.029 C 275.619 90.076,275.295 90.400,273.200 90.400 C 271.028 90.400,270.701 89.995,272.089 89.023 C 273.212 88.236,273.781 88.238,274.571 89.029 M285.669 89.062 C 286.497 89.812,286.692 93.107,285.986 94.426 C 285.401 95.520,283.422 95.452,282.623 94.311 C 280.605 91.431,283.250 86.873,285.669 89.062 M340.171 89.029 C 341.219 90.076,340.895 90.400,338.800 90.400 C 336.628 90.400,336.301 89.995,337.689 89.023 C 338.812 88.236,339.381 88.238,340.171 89.029 M247.200 93.171 C 247.200 95.033,243.994 95.988,243.660 94.226 C 243.475 93.255,244.607 92.400,246.076 92.400 C 246.919 92.400,247.200 92.593,247.200 93.171 M220.018 94.578 C 219.232 95.525,219.664 96.981,220.778 97.138 C 222.383 97.365,223.284 95.741,222.171 94.629 C 221.388 93.845,220.641 93.828,220.018 94.578 M396.018 94.578 C 395.119 95.661,395.662 97.000,397.000 97.000 C 397.948 97.000,398.227 96.807,398.331 96.078 C 398.474 95.068,397.790 94.000,397.000 94.000 C 396.724 94.000,396.282 94.260,396.018 94.578 " stroke="none" fill="#c30b0d" fill-rule="evenodd"></path></g></svg>